# xmcd
#
# Track frame offsets:
# 150
# 13260
# 28615
# 42214
# 60840
# 81273
# 94132
# 111328
# 127271
# 146192
# 156553
# 171914
# 182134
# 193227
# 212001
#
# Disc length: 3087 seconds
#
#
# Revision: 0
# Processed by: cddbd v1.5.2PL0 Copyright (c) Steve Scherf et al.
# Submitted via: FreeRIP 2.51 
#
DISCID=e00c0d0f
DTITLE=Texas Lightning - Meanwhile, back at the Ranch
DYEAR=2006
DGENRE=Country
TTITLE0=Bad Case of Loving You
TTITLE1=Like a Virgin
TTITLE2=No No Never
TTITLE3=Kiss
TTITLE4=Over the Mountains
TTITLE5=C'est La Vie
TTITLE6=Highway to Hell
TTITLE7=Dancing Queen
TTITLE8=Man in the Mirror
TTITLE9=Norwegian Wood
TTITLE10=Smoke, Smoke , Smoke (that Cigarette)
TTITLE11=Walking after Midnight
TTITLE12=Raindrops keep falling on my Head
TTITLE13=Walk on the Wild Side
TTITLE14=Blue Bayou
EXTD=German Song 2006 for the Eurovision Song Contest
EXTT0=
EXTT1=
EXTT2=
EXTT3=
EXTT4=
EXTT5=
EXTT6=
EXTT7=
EXTT8=
EXTT9=
EXTT10=
EXTT11=
EXTT12=
EXTT13=
EXTT14=
PLAYORDER=
